HIERARCHY
ROOT Hips
{
	OFFSET 0.000000 0.000000 0.000000
	CHANNELS 6 Xposition Yposition Zposition Yrotation Xrotation Zrotation
	JOINT Chest
	{
		OFFSET 0.000000 -0.009282 11.569106
		CHANNELS 6 Xposition Yposition Zposition Yrotation Xrotation Zrotation
		JOINT Chest2
		{
			OFFSET -0.000000 0.016863 9.269641
			CHANNELS 6 Xposition Yposition Zposition Yrotation Xrotation Zrotation
			JOINT Chest3
			{
				OFFSET -0.000000 0.000000 8.374491
				CHANNELS 6 Xposition Yposition Zposition Yrotation Xrotation Zrotation
				JOINT Chest4
				{
					OFFSET -0.000000 0.000000 8.374493
					CHANNELS 6 Xposition Yposition Zposition Yrotation Xrotation Zrotation
					JOINT Neck
					{
						OFFSET -0.000000 0.000001 12.152554
						CHANNELS 6 Xposition Yposition Zposition Yrotation Xrotation Zrotation
						JOINT Head
						{
							OFFSET -0.000000 0.040100 7.802319
							CHANNELS 6 Xposition Yposition Zposition Yrotation Xrotation Zrotation
							End Site
							{
								OFFSET -0.000000 0.020946 14.853096
							}
						}
					}
					JOINT RightCollar
					{
						OFFSET 2.894404 0.000001 6.791374
						CHANNELS 6 Xposition Yposition Zposition Yrotation Xrotation Zrotation
						JOINT RightShoulder
						{
							OFFSET 13.574684 0.000001 0.000000
							CHANNELS 6 Xposition Yposition Zposition Yrotation Xrotation Zrotation
							JOINT RightElbow
							{
								OFFSET 23.923903 0.000002 0.000000
								CHANNELS 6 Xposition Yposition Zposition Yrotation Xrotation Zrotation
								JOINT RightWrist
								{
									OFFSET 19.846718 0.012767 0.000000
									CHANNELS 6 Xposition Yposition Zposition Yrotation Xrotation Zrotation
									End Site
									{
										OFFSET 14.973145 0.000001 0.000000
									}
								}
							}
						}
					}
					JOINT LeftCollar
					{
						OFFSET -2.894404 0.000000 6.791374
						CHANNELS 6 Xposition Yposition Zposition Yrotation Xrotation Zrotation
						JOINT LeftShoulder
						{
							OFFSET -13.574684 -0.000001 0.000000
							CHANNELS 6 Xposition Yposition Zposition Yrotation Xrotation Zrotation
							JOINT LeftElbow
							{
								OFFSET -23.923903 -0.000002 0.000000
								CHANNELS 6 Xposition Yposition Zposition Yrotation Xrotation Zrotation
								JOINT LeftWrist
								{
									OFFSET -19.846718 0.012763 0.000000
									CHANNELS 6 Xposition Yposition Zposition Yrotation Xrotation Zrotation
									End Site
									{
										OFFSET -14.973145 -0.000001 0.000000
									}
								}
							}
						}
					}
				}
			}
		}
	}
	JOINT RightHip
	{
		OFFSET 9.469263 0.004643 0.045487
		CHANNELS 6 Xposition Yposition Zposition Yrotation Xrotation Zrotation
		JOINT RightKnee
		{
			OFFSET 0.000000 0.002666 -40.478676
			CHANNELS 6 Xposition Yposition Zposition Yrotation Xrotation Zrotation
			JOINT RightAnkle
			{
				OFFSET 0.000000 0.049110 -35.224068
				CHANNELS 6 Xposition Yposition Zposition Yrotation Xrotation Zrotation
				JOINT RightToe
				{
					OFFSET -0.000001 12.539530 -6.151390
					CHANNELS 6 Xposition Yposition Zposition Yrotation Xrotation Zrotation
					End Site
					{
						OFFSET -0.000001 5.044996 -1.291870
					}
				}
			}
		}
	}
	JOINT LeftHip
	{
		OFFSET -9.469263 0.004641 0.045487
		CHANNELS 6 Xposition Yposition Zposition Yrotation Xrotation Zrotation
		JOINT LeftKnee
		{
			OFFSET 0.000000 0.002666 -40.478676
			CHANNELS 6 Xposition Yposition Zposition Yrotation Xrotation Zrotation
			JOINT LeftAnkle
			{
				OFFSET 0.000000 0.049110 -35.224068
				CHANNELS 6 Xposition Yposition Zposition Yrotation Xrotation Zrotation
				JOINT LeftToe
				{
					OFFSET -0.000001 12.539530 -6.151390
					CHANNELS 6 Xposition Yposition Zposition Yrotation Xrotation Zrotation
					End Site
					{
						OFFSET -0.000001 5.044996 -1.291870
					}
				}
			}
		}
	}
}
MOTION
Frames: 5
Frame Time: 0.016667
11.181458 5.819028 83.001640 -8.832588 -4.582311 -114.151087 0.000000 -0.009284 11.569105 0.441114 -3.907157 -1.138386 -0.000002 0.016864 9.269644 0.183363 -1.734766 -0.490303 -0.000000 0.000001 8.374505 0.183363 -1.734767 -0.490302 0.000001 -0.000000 8.374492 0.136120 -1.301223 -0.367180 -0.000000 0.000001 12.152552 0.308378 -19.745242 -0.248032 -0.000002 0.040103 7.802318 0.486004 -0.483571 -0.357122 2.894404 -0.000000 6.791365 4.218616 -2.527105 2.997433 13.574687 -0.000000 0.000001 58.684589 -16.716722 53.261047 23.923899 0.000009 -0.000006 16.052317 -37.130418 66.062088 19.846712 0.012773 0.000017 -54.659972 32.178937 28.346620 -2.894404 -0.000000 6.791369 -9.181149 -3.067040 -5.172103 -13.574686 0.000000 0.000005 -54.347078 -12.970629 -50.677743 -23.923912 -0.000005 -0.000001 -27.217841 -39.124191 -36.764600 -19.846714 0.012741 0.000005 51.702428 35.661954 -40.104525 9.469263 0.004641 0.045490 0.380468 -12.257111 -2.449178 -0.000102 0.002661 -40.478813 -0.132013 -3.068539 2.197019 -0.000009 0.049096 -35.223812 1.012493 5.641150 0.304950 -0.000001 12.539527 -6.151392 -0.034050 -0.040778 -0.004887 -9.469263 0.004640 0.045491 -0.176821 -12.824691 1.058402 -0.000130 0.002661 -40.478752 0.790759 -1.709073 2.829555 0.000027 0.049100 -35.223850 -0.614871 4.842227 -0.650152 -0.000002 12.539537 -6.151390 -0.023016 -0.013444 0.000987 
11.130236 5.828040 83.002953 -8.783431 -4.560224 -114.148813 -0.000000 -0.009283 11.569118 0.422395 -3.953934 -1.128232 0.000000 0.016861 9.269639 0.174682 -1.754554 -0.486360 -0.000001 0.000000 8.374495 0.174682 -1.754554 -0.486359 0.000000 -0.000001 8.374497 0.129605 -1.316056 -0.364241 -0.000001 0.000003 12.152554 0.287604 -19.548773 -0.165012 -0.000001 0.040103 7.802329 0.473873 -0.118854 -0.211500 2.894403 0.000000 6.791379 4.220984 -2.552126 2.991706 13.574685 0.000001 -0.000014 58.775963 -16.645688 53.220626 23.923897 0.000009 -0.000010 16.584121 -37.070346 65.781422 19.846720 0.012761 0.000002 -54.785326 32.118060 28.023677 -2.894404 -0.000001 6.791370 -9.183871 -3.063950 -5.184266 -13.574682 0.000002 0.000009 -54.316697 -12.926013 -50.661777 -23.923899 -0.000002 -0.000000 -27.217177 -39.202912 -36.773356 -19.846716 0.012770 -0.000015 51.751756 35.613221 -39.828872 9.469263 0.004641 0.045489 0.390078 -12.169386 -2.442584 -0.000101 0.002660 -40.478828 -0.130091 -3.062740 2.181023 -0.000009 0.049096 -35.223797 1.014706 5.603367 0.306403 -0.000001 12.539529 -6.151395 -0.036826 -0.040280 -0.004492 -9.469264 0.004639 0.045495 -0.161458 -12.737675 1.106482 -0.000130 0.002662 -40.478752 0.784568 -1.699145 2.791653 0.000028 0.049100 -35.223843 -0.619598 4.810580 -0.668392 -0.000000 12.539535 -6.151397 -0.018383 -0.019633 0.001304 
11.085173 5.836365 83.005287 -8.708091 -4.524299 -114.140719 0.000000 -0.009285 11.569112 0.408722 -3.983417 -1.120290 -0.000002 0.016863 9.269648 0.168954 -1.766855 -0.483696 0.000000 -0.000000 8.374478 0.168954 -1.766856 -0.483694 -0.000000 -0.000000 8.374493 0.125306 -1.325276 -0.362252 -0.000000 0.000000 12.152565 0.263683 -19.301946 -0.094406 0.000001 0.040101 7.802303 0.452496 0.339369 -0.089284 2.894404 -0.000001 6.791380 4.220406 -2.538500 2.986706 13.574683 -0.000001 0.000004 58.825114 -16.635904 53.167299 23.923901 0.000007 -0.000006 17.095660 -36.999527 65.491242 19.846716 0.012778 -0.000000 -54.870714 32.065126 27.759876 -2.894404 -0.000001 6.791382 -9.194055 -3.039565 -5.188024 -13.574680 0.000003 0.000006 -54.320996 -12.937494 -50.620130 -23.923914 -0.000004 0.000006 -27.206546 -39.263759 -36.749635 -19.846722 0.012771 -0.000010 51.809392 35.531389 -39.534907 9.469263 0.004640 0.045491 0.396691 -12.071113 -2.442219 -0.000100 0.002660 -40.478809 -0.127674 -3.028242 2.141624 -0.000010 0.049096 -35.223816 1.026563 5.555268 0.334217 -0.000001 12.539532 -6.151397 -0.042435 -0.039397 -0.005389 -9.469263 0.004640 0.045493 -0.146087 -12.633609 1.163849 -0.000129 0.002664 -40.478748 0.777367 -1.667515 2.729884 0.000030 0.049101 -35.223858 -0.625906 4.768134 -0.683337 -0.000002 12.539534 -6.151393 -0.011668 -0.023236 0.002243 
11.045550 5.843560 83.008278 -8.616166 -4.476426 -114.124640 0.000000 -0.009283 11.569105 0.400053 -3.994614 -1.118822 0.000000 0.016863 9.269641 0.165520 -1.771551 -0.483673 0.000000 0.000001 8.374481 0.165520 -1.771552 -0.483673 0.000001 0.000001 8.374508 0.122728 -1.328795 -0.362246 -0.000001 0.000003 12.152547 0.238037 -19.019821 -0.040451 -0.000000 0.040099 7.802316 0.423085 0.863192 0.002135 2.894403 0.000000 6.791378 4.209272 -2.545663 2.981623 13.574685 0.000002 -0.000007 58.836984 -16.650019 53.148492 23.923912 0.000019 -0.000002 17.556643 -36.928084 65.215042 19.846710 0.012755 -0.000007 -54.926185 31.983795 27.513937 -2.894404 -0.000001 6.791383 -9.209585 -3.025032 -5.183124 -13.574680 -0.000002 -0.000007 -54.334643 -12.995455 -50.570198 -23.923908 -0.000007 0.000005 -27.211054 -39.276562 -36.751827 -19.846722 0.012768 -0.000004 51.893411 35.383098 -39.151331 9.469263 0.004642 0.045482 0.402627 -11.970079 -2.436039 -0.000097 0.002661 -40.478813 -0.128276 -2.967810 2.088213 -0.000012 0.049095 -35.223808 1.043983 5.499013 0.359781 -0.000001 12.539527 -6.151399 -0.048989 -0.038544 -0.006677 -9.469262 0.004641 0.045488 -0.130525 -12.520252 1.211330 -0.000124 0.002664 -40.478756 0.762781 -1.621650 2.652343 0.000029 0.049099 -35.223858 -0.631208 4.720683 -0.682877 -0.000004 12.539535 -6.151389 -0.001849 -0.024908 0.004276 
11.011663 5.849188 83.010429 -8.513821 -4.421072 -114.104983 -0.000000 -0.009283 11.569101 0.393999 -3.995473 -1.117316 -0.000002 0.016862 9.269639 0.163004 -1.771802 -0.483615 -0.000001 0.000002 8.374493 0.163004 -1.771802 -0.483617 -0.000001 0.000001 8.374496 0.120841 -1.328981 -0.362211 0.000000 0.000002 12.152555 0.211075 -18.735627 0.000143 -0.000001 0.040102 7.802317 0.387238 1.390912 0.068701 2.894405 -0.000000 6.791371 4.195804 -2.549426 2.986546 13.574681 0.000000 0.000005 58.835803 -16.662976 53.136409 23.923908 0.000007 -0.000012 18.070640 -36.861991 64.898859 19.846714 0.012763 -0.000012 -54.972897 31.869980 27.300548 -2.894403 -0.000001 6.791373 -9.219297 -3.013820 -5.187046 -13.574688 -0.000000 -0.000004 -54.351083 -13.062020 -50.501517 -23.923906 -0.000002 0.000005 -27.274001 -39.254313 -36.780241 -19.846716 0.012749 0.000002 51.997407 35.161892 -38.622042 9.469262 0.004641 0.045481 0.408882 -11.870991 -2.406628 -0.000094 0.002661 -40.478821 -0.133273 -2.887318 2.004034 -0.000013 0.049095 -35.223824 1.067500 5.440125 0.389038 0.000000 12.539527 -6.151391 -0.055320 -0.040003 -0.006874 -9.469262 0.004642 0.045486 -0.120192 -12.399408 1.235777 -0.000121 0.002662 -40.478756 0.752949 -1.571009 2.576829 0.000030 0.049102 -35.223850 -0.638380 4.672478 -0.670968 -0.000000 12.539533 -6.151399 0.007023 -0.025830 0.005006 
